<svg xmlns="http://www.w3.org/2000/svg" viewBox="0 0 64 64">
<path d="M18.44 41.45L15.95 41.45L15.95 33.54L5.24 22.55L8.56 22.55L17.20 31.41L25.83 22.55L29.18 22.55L18.44 33.54L18.44 41.45ZM44.30 41.68L38.37 41.68Q35.43 41.68 34.12 41.38Q32.81 41.08 31.95 40.36L31.95 40.36Q31.01 39.56 30.58 38.24Q30.16 36.92 30.16 34.75L30.16 34.75L30.16 29.59Q30.16 27.25 30.58 25.86Q31.00 24.47 31.95 23.64L31.95 23.64Q32.77 22.93 34.16 22.62Q35.54 22.32 38.35 22.32L38.35 22.32L44.30 22.32Q48.92 22.32 50.55 23.47Q52.17 24.62 52.17 27.65L52.17 27.65L52.16 28.26L52.15 28.65L49.99 28.65L49.99 28.38Q49.99 26.15 49.02 25.28Q48.05 24.40 45.60 24.40L45.60 24.40L37.41 24.40Q35.73 24.40 34.80 24.71Q33.87 25.02 33.35 25.77L33.35 25.77Q33.00 26.27 32.84 27.00Q32.67 27.74 32.67 29.44L32.67 29.44L32.67 29.80L32.67 34.46Q32.67 36.13 32.83 36.88Q32.98 37.62 33.35 38.13L33.35 38.13Q33.85 38.84 34.81 39.17Q35.77 39.50 37.41 39.50L37.41 39.50L45.57 39.50Q48.25 39.50 49.23 38.63Q50.21 37.77 50.21 35.50L50.21 35.50L50.21 34.98L52.36 34.98L52.38 35.47L52.39 35.92Q52.39 37.69 52.04 38.75Q51.69 39.80 50.88 40.49L50.88 40.49Q50.13 41.12 48.75 41.40Q47.37 41.68 44.30 41.68L44.30 41.68ZM58.76 22.55L58.76 41.45L56.41 41.45L56.41 22.55L58.76 22.55Z" fill="#e6e6e8"/>
</svg>